{
  "accessors": [
    {
      "bufferView": 2,
      "componentType": 5126,
      "count": 65532,
      "max": [
        224.74954223632813,
        72.34439086914063,
        261.794921875
      ],
      "min": [
        -30.894996643066406,
        2.2384586334228516,
        164.15850830078125
      ],
      "type": "VEC3"
    },
    {
      "bufferView": 2,
      "byteOffset": 786384,
      "componentType": 5126,
      "count": 65532,
      "max": [
        0.9994845390319824,
        0.9984092116355896,
        1.0
      ],
      "min": [
        -0.9988616704940796,
        -0.998417854309082,
        -1.0
      ],
      "type": "VEC3"
    },
    {
      "bufferView": 3,
      "componentType": 5126,
      "count": 65532,
      "max": [
        0.9996455907821655,
        1.0,
        0.9999825954437256,
        1.0
      ],
      "min": [
        -1.0,
        -1.0,
        -0.9999923706054688,
        -1.0
      ],
      "type": "VEC4"
    },
    {
      "bufferView": 1,
      "componentType": 5126,
      "count": 65532,
      "max": [
        0.9957656264305115,
        0.9780792593955994
      ],
      "min": [
        0.0012206435203552246,
        0.0029340162873268127
      ],
      "type": "VEC2"
    },
    {
      "bufferView": 0,
      "componentType": 5125,
      "count": 261225,
      "type": "SCALAR"
    },
    {
      "bufferView": 2,
      "byteOffset": 1572768,
      "componentType": 5126,
      "count": 65532,
      "max": [
        224.74951171875,
        42.2249641418457,
        295.748779296875
      ],
      "min": [
        -30.89495086669922,
        2.238443374633789,
        174.47616577148438
      ],
      "type": "VEC3"
    },
    {
      "bufferView": 2,
      "byteOffset": 2359152,
      "componentType": 5126,
      "count": 65532,
      "max": [
        0.9983524084091187,
        0.9984092116355896,
        1.0
      ],
      "min": [
        -0.9983600974082947,
        -0.9983941912651062,
        -1.0
      ],
      "type": "VEC3"
    },
    {
      "bufferView": 3,
      "byteOffset": 1048512,
      "componentType": 5126,
      "count": 65532,
      "max": [
        0.9996458292007446,
        1.0,
        0.9999738931655884,
        1.0
      ],
      "min": [
        -1.0,
        -1.0,
        -0.9999826550483704,
        -1.0
      ],
      "type": "VEC4"
    },
    {
      "bufferView": 1,
      "byteOffset": 524256,
      "componentType": 5126,
      "count": 65532,
      "max": [
        0.9421371817588806,
        0.9006233215332031
      ],
      "min": [
        0.0012206435203552246,
        0.0029340162873268127
      ],
      "type": "VEC2"
    },
    {
      "bufferView": 0,
      "byteOffset": 1044900,
      "componentType": 5125,
      "count": 263925,
      "type": "SCALAR"
    },
    {
      "bufferView": 2,
      "byteOffset": 3145536,
      "componentType": 5126,
      "count": 65532,
      "max": [
        224.74954223632813,
        116.2890625,
        295.748779296875
      ],
      "min": [
        -30.894996643066406,
        2.238443374633789,
        164.1619873046875
      ],
      "type": "VEC3"
    },
    {
      "bufferView": 2,
      "byteOffset": 3931920,
      "componentType": 5126,
      "count": 65532,
      "max": [
        1.0,
        0.9984041452407837,
        1.0
      ],
      "min": [
        -1.0,
        -0.9983991384506226,
        -1.0
      ],
      "type": "VEC3"
    },
    {
      "bufferView": 3,
      "byteOffset": 2097024,
      "componentType": 5126,
      "count": 65532,
      "max": [
        0.9999993443489075,
        1.0,
        0.999945878982544,
        1.0
      ],
      "min": [
        -1.0,
        -1.0,
        -0.9999825954437256,
        -1.0
      ],
      "type": "VEC4"
    },
    {
      "bufferView": 1,
      "byteOffset": 1048512,
      "componentType": 5126,
      "count": 65532,
      "max": [
        0.9421371817588806,
        0.9006233215332031
      ],
      "min": [
        0.0012206435203552246,
        0.0029340162873268127
      ],
      "type": "VEC2"
    },
    {
      "bufferView": 0,
      "byteOffset": 2100600,
      "componentType": 5125,
      "count": 257946,
      "type": "SCALAR"
    },
    {
      "bufferView": 2,
      "byteOffset": 4718304,
      "componentType": 5126,
      "count": 65532,
      "max": [
        226.38284301757813,
        43.96754455566406,
        295.9151306152344
      ],
      "min": [
        -30.89495086669922,
        -0.7094402313232422,
        164.15850830078125
      ],
      "type": "VEC3"
    },
    {
      "bufferView": 2,
      "byteOffset": 5504688,
      "componentType": 5126,
      "count": 65532,
      "max": [
        0.9999986290931702,
        0.9999999403953552,
        1.0
      ],
      "min": [
        -0.9999998211860657,
        -0.9999999403953552,
        -1.0
      ],
      "type": "VEC3"
    },
    {
      "bufferView": 3,
      "byteOffset": 3145536,
      "componentType": 5126,
      "count": 65532,
      "max": [
        1.0,
        1.0,
        1.0,
        1.0
      ],
      "min": [
        -1.0,
        -1.0,
        -1.0,
        -1.0
      ],
      "type": "VEC4"
    },
    {
      "bufferView": 1,
      "byteOffset": 1572768,
      "componentType": 5126,
      "count": 65532,
      "max": [
        0.9883971214294434,
        0.9734005331993103
      ],
      "min": [
        0.0012206435203552246,
        0.0029323548078536987
      ],
      "type": "VEC2"
    },
    {
      "bufferView": 0,
      "byteOffset": 3132384,
      "componentType": 5125,
      "count": 257340,
      "type": "SCALAR"
    },
    {
      "bufferView": 2,
      "byteOffset": 6291072,
      "componentType": 5126,
      "count": 65532,
      "max": [
        222.93072509765625,
        43.967708587646484,
        295.9151306152344
      ],
      "min": [
        -32.96722412109375,
        -0.7094194293022156,
        163.99215698242188
      ],
      "type": "VEC3"
    },
    {
      "bufferView": 2,
      "byteOffset": 7077456,
      "componentType": 5126,
      "count": 65532,
      "max": [
        0.9999986290931702,
        1.0,
        1.0
      ],
      "min": [
        -0.9999998807907104,
        -0.9999999403953552,
        -1.0
      ],
      "type": "VEC3"
    },
    {
      "bufferView": 3,
      "byteOffset": 4194048,
      "componentType": 5126,
      "count": 65532,
      "max": [
        1.0,
        0.9999995231628418,
        1.0,
        1.0
      ],
      "min": [
        -0.9999997615814209,
        -0.9999999403953552,
        -1.0,
        -1.0
      ],
      "type": "VEC4"
    },
    {
      "bufferView": 1,
      "byteOffset": 2097024,
      "componentType": 5126,
      "count": 65532,
      "max": [
        0.9883971214294434,
        0.9734005331993103
      ],
      "min": [
        0.010477066040039063,
        0.0029323548078536987
      ],
      "type": "VEC2"
    },
    {
      "bufferView": 0,
      "byteOffset": 4161744,
      "componentType": 5125,
      "count": 252108,
      "type": "SCALAR"
    },
    {
      "bufferView": 2,
      "byteOffset": 7863840,
      "componentType": 5126,
      "count": 65532,
      "max": [
        226.38284301757813,
        116.2988510131836,
        294.4901123046875
      ],
      "min": [
        -32.96721649169922,
        1.6607168912887573,
        163.49354553222656
      ],
      "type": "VEC3"
    },
    {
      "bufferView": 2,
      "byteOffset": 8650224,
      "componentType": 5126,
      "count": 65532,
      "max": [
        1.0,
        1.0,
        1.0
      ],
      "min": [
        -1.0,
        -1.0,
        -1.0
      ],
      "type": "VEC3"
    },
    {
      "bufferView": 3,
      "byteOffset": 5242560,
      "componentType": 5126,
      "count": 65532,
      "max": [
        1.0,
        0.9999998807907104,
        1.0,
        1.0
      ],
      "min": [
        -1.0,
        -0.9999993443489075,
        -1.0,
        -1.0
      ],
      "type": "VEC4"
    },
    {
      "bufferView": 1,
      "byteOffset": 2621280,
      "componentType": 5126,
      "count": 65532,
      "max": [
        0.9967865347862244,
        0.998779296875
      ],
      "min": [
        0.0012206435203552246,
        0.0029323548078536987
      ],
      "type": "VEC2"
    },
    {
      "bufferView": 0,
      "byteOffset": 5170176,
      "componentType": 5125,
      "count": 263886,
      "type": "SCALAR"
    },
    {
      "bufferView": 2,
      "byteOffset": 9436608,
      "componentType": 5126,
      "count": 1682,
      "max": [
        221.94699096679688,
        79.62962341308594,
        276.45452880859375
      ],
      "min": [
        -28.135574340820313,
        20.716270446777344,
        183.54547119140625
      ],
      "type": "VEC3"
    },
    {
      "bufferView": 2,
      "byteOffset": 9456792,
      "componentType": 5126,
      "count": 1682,
      "max": [
        0.999999463558197,
        0.9999847412109375,
        0.9999986886978149
      ],
      "min": [
        -1.0,
        -0.9999887943267822,
        -0.9999986290931702
      ],
      "type": "VEC3"
    },
    {
      "bufferView": 3,
      "byteOffset": 6291072,
      "componentType": 5126,
      "count": 1682,
      "max": [
        0.9999926090240479,
        0.9999995827674866,
        1.0,
        1.0
      ],
      "min": [
        -0.9999936819076538,
        -0.9999701976776123,
        -1.0,
        1.0
      ],
      "type": "VEC4"
    },
    {
      "bufferView": 1,
      "byteOffset": 3145536,
      "componentType": 5126,
      "count": 1682,
      "max": [
        0.9956812262535095,
        0.9704338908195496
      ],
      "min": [
        0.002934873104095459,
        0.014978790655732155
      ],
      "type": "VEC2"
    },
    {
      "bufferView": 0,
      "byteOffset": 6225720,
      "componentType": 5125,
      "count": 6588,
      "type": "SCALAR"
    },
    {
      "bufferView": 2,
      "byteOffset": 9476976,
      "componentType": 5126,
      "count": 47516,
      "max": [
        227.48049926757813,
        119.05091857910156,
        297.36541748046875
      ],
      "min": [
        -42.737709045410156,
        14.422693252563477,
        162.63461303710938
      ],
      "type": "VEC3"
    },
    {
      "bufferView": 2,
      "byteOffset": 10047168,
      "componentType": 5126,
      "count": 47516,
      "max": [
        1.0,
        1.0,
        1.0
      ],
      "min": [
        -1.0,
        -1.0,
        -1.0
      ],
      "type": "VEC3"
    },
    {
      "bufferView": 3,
      "byteOffset": 6317984,
      "componentType": 5126,
      "count": 47516,
      "max": [
        1.0,
        1.0,
        1.0,
        1.0
      ],
      "min": [
        -1.0,
        -1.0,
        -1.0,
        -1.0
      ],
      "type": "VEC4"
    },
    {
      "bufferView": 1,
      "byteOffset": 3158992,
      "componentType": 5126,
      "count": 47516,
      "max": [
        0.998779296875,
        0.9903278350830078
      ],
      "min": [
        0.001220703125,
        0.001220703125
      ],
      "type": "VEC2"
    },
    {
      "bufferView": 0,
      "byteOffset": 6252072,
      "componentType": 5125,
      "count": 211929,
      "type": "SCALAR"
    },
    {
      "bufferView": 2,
      "byteOffset": 10617360,
      "componentType": 5126,
      "count": 12027,
      "max": [
        223.92132568359375,
        149.35635375976563,
        288.01824951171875
      ],
      "min": [
        -129.48049926757813,
        19.166046142578125,
        172.48062133789063
      ],
      "type": "VEC3"
    },
    {
      "bufferView": 2,
      "byteOffset": 10761684,
      "componentType": 5126,
      "count": 12027,
      "max": [
        1.0,
        1.0,
        1.0
      ],
      "min": [
        -1.0,
        -1.0,
        -1.0
      ],
      "type": "VEC3"
    },
    {
      "bufferView": 3,
      "byteOffset": 7078240,
      "componentType": 5126,
      "count": 12027,
      "max": [
        1.0,
        0.9999945163726807,
        1.0,
        1.0
      ],
      "min": [
        -1.0,
        -0.9999998807907104,
        -1.0,
        -1.0
      ],
      "type": "VEC4"
    },
    {
      "bufferView": 1,
      "byteOffset": 3539120,
      "componentType": 5126,
      "count": 12027,
      "max": [
        0.998779296875,
        0.992519736289978
      ],
      "min": [
        0.0012206733226776123,
        0.007448554039001465
      ],
      "type": "VEC2"
    },
    {
      "bufferView": 0,
      "byteOffset": 7099788,
      "componentType": 5125,
      "count": 55335,
      "type": "SCALAR"
    }
  ],
  "asset": {
    "extras": {
      "author": "Federico Oviedo (https://sketchfab.com/Federico.Oviedo)",
      "license": "CC-BY-4.0 (http://creativecommons.org/licenses/by/4.0/)",
      "source": "https://sketchfab.com/3d-models/t-34-85-soviet-tank-58d1ec1a786f4065a504da5ccf6fc7b5",
      "title": "T-34-85 Soviet Tank"
    },
    "generator": "Sketchfab-15.36.0",
    "version": "2.0"
  },
  "bufferViews": [
    {
      "buffer": 0,
      "byteLength": 7321128,
      "name": "floatBufferViews",
      "target": 34963
    },
    {
      "buffer": 0,
      "byteLength": 3635336,
      "byteOffset": 7321128,
      "byteStride": 8,
      "name": "floatBufferViews",
      "target": 34962
    },
    {
      "buffer": 0,
      "byteLength": 10906008,
      "byteOffset": 10956464,
      "byteStride": 12,
      "name": "floatBufferViews",
      "target": 34962
    },
    {
      "buffer": 0,
      "byteLength": 7270672,
      "byteOffset": 21862472,
      "byteStride": 16,
      "name": "floatBufferViews",
      "target": 34962
    }
  ],
  "buffers": [
    {
      "byteLength": 29133144,
      "uri": "scene.bin"
    }
  ],
  "images": [
    {
      "uri": "textures/T_Detalles_baseColor.jpeg"
    },
    {
      "uri": "textures/T_Detalles_metallicRoughness.png"
    },
    {
      "uri": "textures/T_Detalles_normal.png"
    },
    {
      "uri": "textures/T_Modulos_baseColor.jpeg"
    },
    {
      "uri": "textures/T_Modulos_metallicRoughness.png"
    },
    {
      "uri": "textures/T_Modulos_normal.png"
    },
    {
      "uri": "textures/T_T34_baseColor.jpeg"
    },
    {
      "uri": "textures/T_T34_metallicRoughness.png"
    },
    {
      "uri": "textures/T_T34_normal.png"
    }
  ],
  "materials": [
    {
      "doubleSided": true,
      "name": "T_Detalles",
      "normalTexture": {
        "index": 2
      },
      "pbrMetallicRoughness": {
        "baseColorTexture": {
          "index": 0
        },
        "metallicRoughnessTexture": {
          "index": 1
        }
      }
    },
    {
      "doubleSided": true,
      "name": "T_Modulos",
      "normalTexture": {
        "index": 5
      },
      "pbrMetallicRoughness": {
        "baseColorTexture": {
          "index": 3
        },
        "metallicRoughnessTexture": {
          "index": 4
        }
      }
    },
    {
      "doubleSided": true,
      "name": "T_T34",
      "normalTexture": {
        "index": 8
      },
      "pbrMetallicRoughness": {
        "baseColorTexture": {
          "index": 6
        },
        "metallicRoughnessTexture": {
          "index": 7
        }
      }
    }
  ],
  "meshes": [
    {
      "name": "T_34_85_T_Detalles_0",
      "primitives": [
        {
          "attributes": {
            "NORMAL": 1,
            "POSITION": 0,
            "TANGENT": 2,
            "TEXCOORD_0": 3
          },
          "indices": 4,
          "material": 0,
          "mode": 4
        }
      ]
    },
    {
      "name": "T_34_85_T_Detalles_0",
      "primitives": [
        {
          "attributes": {
            "NORMAL": 6,
            "POSITION": 5,
            "TANGENT": 7,
            "TEXCOORD_0": 8
          },
          "indices": 9,
          "material": 0,
          "mode": 4
        }
      ]
    },
    {
      "name": "T_34_85_T_Detalles_0",
      "primitives": [
        {
          "attributes": {
            "NORMAL": 11,
            "POSITION": 10,
            "TANGENT": 12,
            "TEXCOORD_0": 13
          },
          "indices": 14,
          "material": 0,
          "mode": 4
        }
      ]
    },
    {
      "name": "T_34_85_T_Detalles_0",
      "primitives": [
        {
          "attributes": {
            "NORMAL": 16,
            "POSITION": 15,
            "TANGENT": 17,
            "TEXCOORD_0": 18
          },
          "indices": 19,
          "material": 0,
          "mode": 4
        }
      ]
    },
    {
      "name": "T_34_85_T_Detalles_0",
      "primitives": [
        {
          "attributes": {
            "NORMAL": 21,
            "POSITION": 20,
            "TANGENT": 22,
            "TEXCOORD_0": 23
          },
          "indices": 24,
          "material": 0,
          "mode": 4
        }
      ]
    },
    {
      "name": "T_34_85_T_Detalles_0",
      "primitives": [
        {
          "attributes": {
            "NORMAL": 26,
            "POSITION": 25,
            "TANGENT": 27,
            "TEXCOORD_0": 28
          },
          "indices": 29,
          "material": 0,
          "mode": 4
        }
      ]
    },
    {
      "name": "T_34_85_T_Detalles_0",
      "primitives": [
        {
          "attributes": {
            "NORMAL": 31,
            "POSITION": 30,
            "TANGENT": 32,
            "TEXCOORD_0": 33
          },
          "indices": 34,
          "material": 0,
          "mode": 4
        }
      ]
    },
    {
      "name": "T_34_85_T_Modulos_0",
      "primitives": [
        {
          "attributes": {
            "NORMAL": 36,
            "POSITION": 35,
            "TANGENT": 37,
            "TEXCOORD_0": 38
          },
          "indices": 39,
          "material": 1,
          "mode": 4
        }
      ]
    },
    {
      "name": "T_34_85_T_T34_0",
      "primitives": [
        {
          "attributes": {
            "NORMAL": 41,
            "POSITION": 40,
            "TANGENT": 42,
            "TEXCOORD_0": 43
          },
          "indices": 44,
          "material": 2,
          "mode": 4
        }
      ]
    }
  ],
  "nodes": [
    {
      "children": [
        1
      ],
      "matrix": [
        1.0,
        0.0,
        0.0,
        0.0,
        0.0,
        2.220446049250313e-16,
        -1.0,
        0.0,
        0.0,
        1.0,
        2.220446049250313e-16,
        0.0,
        0.0,
        0.0,
        0.0,
        1.0
      ],
      "name": "Sketchfab_model"
    },
    {
      "children": [
        2
      ],
      "matrix": [
        0.009999999776482582,
        0.0,
        0.0,
        0.0,
        0.0,
        0.0,
        0.009999999776482582,
        0.0,
        0.0,
        -0.009999999776482582,
        0.0,
        0.0,
        0.0,
        0.0,
        0.0,
        1.0
      ],
      "name": "T34_85_low.fbx"
    },
    {
      "children": [
        3
      ],
      "name": "RootNode"
    },
    {
      "children": [
        4,
        5,
        6,
        7,
        8,
        9,
        10,
        11,
        12
      ],
      "name": "T_34_85"
    },
    {
      "mesh": 0,
      "name": "T_34_85_T_Detalles_0"
    },
    {
      "mesh": 1,
      "name": "T_34_85_T_Detalles_0"
    },
    {
      "mesh": 2,
      "name": "T_34_85_T_Detalles_0"
    },
    {
      "mesh": 3,
      "name": "T_34_85_T_Detalles_0"
    },
    {
      "mesh": 4,
      "name": "T_34_85_T_Detalles_0"
    },
    {
      "mesh": 5,
      "name": "T_34_85_T_Detalles_0"
    },
    {
      "mesh": 6,
      "name": "T_34_85_T_Detalles_0"
    },
    {
      "mesh": 7,
      "name": "T_34_85_T_Modulos_0"
    },
    {
      "mesh": 8,
      "name": "T_34_85_T_T34_0"
    }
  ],
  "samplers": [
    {
      "magFilter": 9729,
      "minFilter": 9987,
      "wrapS": 10497,
      "wrapT": 10497
    }
  ],
  "scene": 0,
  "scenes": [
    {
      "name": "Sketchfab_Scene",
      "nodes": [
        0
      ]
    }
  ],
  "textures": [
    {
      "sampler": 0,
      "source": 0
    },
    {
      "sampler": 0,
      "source": 1
    },
    {
      "sampler": 0,
      "source": 2
    },
    {
      "sampler": 0,
      "source": 3
    },
    {
      "sampler": 0,
      "source": 4
    },
    {
      "sampler": 0,
      "source": 5
    },
    {
      "sampler": 0,
      "source": 6
    },
    {
      "sampler": 0,
      "source": 7
    },
    {
      "sampler": 0,
      "source": 8
    }
  ]
}
