{
  "accessors": [
    {
      "bufferView": 2,
      "componentType": 5126,
      "count": 229,
      "max": [
        -0.11599399894475937,
        0.3515790104866028,
        0.16661199927330017
      ],
      "min": [
        -0.26632100343704224,
        0.21512900292873383,
        -0.02291950024664402
      ],
      "type": "VEC3"
    },
    {
      "bufferView": 2,
      "byteOffset": 2748,
      "componentType": 5126,
      "count": 229,
      "max": [
        0.962286114692688,
        0.9838519096374512,
        0.9985250234603882
      ],
      "min": [
        -0.9602131247520447,
        -0.988756000995636,
        -0.9985306262969971
      ],
      "type": "VEC3"
    },
    {
      "bufferView": 3,
      "componentType": 5126,
      "count": 229,
      "max": [
        0.9118701219558716,
        0.7531638741493225,
        0.9969982504844666,
        1.0
      ],
      "min": [
        -0.8002538084983826,
        -0.7737928032875061,
        -0.9982652068138123,
        -1.0
      ],
      "type": "VEC4"
    },
    {
      "bufferView": 1,
      "componentType": 5126,
      "count": 229,
      "max": [
        0.9818450212478638,
        0.9944270253181458
      ],
      "min": [
        0.017206799238920212,
        0.9071459770202637
      ],
      "type": "VEC2"
    },
    {
      "bufferView": 0,
      "componentType": 5125,
      "count": 1176,
      "type": "SCALAR"
    },
    {
      "bufferView": 2,
      "byteOffset": 5496,
      "componentType": 5126,
      "count": 186,
      "max": [
        0.16292600333690643,
        0.3671190142631531,
        0.06870540231466293
      ],
      "min": [
        -0.1386280059814453,
        0.3241310119628906,
        0.05238490179181099
      ],
      "type": "VEC3"
    },
    {
      "bufferView": 2,
      "byteOffset": 7728,
      "componentType": 5126,
      "count": 186,
      "max": [
        0.3246878981590271,
        0.9885162115097046,
        0.9684346318244934
      ],
      "min": [
        -0.2552171051502228,
        -0.9883374571800232,
        -0.9684346318244934
      ],
      "type": "VEC3"
    },
    {
      "bufferView": 3,
      "byteOffset": 3664,
      "componentType": 5126,
      "count": 186,
      "max": [
        0.997704267501831,
        0.9311840534210205,
        0.9750930070877075,
        1.0
      ],
      "min": [
        -0.9999929666519165,
        -0.9750062823295593,
        -0.9885162711143494,
        -1.0
      ],
      "type": "VEC4"
    },
    {
      "bufferView": 1,
      "byteOffset": 1832,
      "componentType": 5126,
      "count": 186,
      "max": [
        0.9923499822616577,
        0.9548439979553223
      ],
      "min": [
        0.0014956799568608403,
        0.5884190201759338
      ],
      "type": "VEC2"
    },
    {
      "bufferView": 0,
      "byteOffset": 4704,
      "componentType": 5125,
      "count": 420,
      "type": "SCALAR"
    },
    {
      "bufferView": 2,
      "byteOffset": 9960,
      "componentType": 5126,
      "count": 705,
      "max": [
        0.3436090052127838,
        1.0,
        0.3436090052127838
      ],
      "min": [
        -0.3436090052127838,
        -1.0,
        -0.3436090052127838
      ],
      "type": "VEC3"
    },
    {
      "bufferView": 2,
      "byteOffset": 18420,
      "componentType": 5126,
      "count": 705,
      "max": [
        1.0,
        1.0,
        1.0
      ],
      "min": [
        -1.0,
        -1.0,
        -1.0
      ],
      "type": "VEC3"
    },
    {
      "bufferView": 3,
      "byteOffset": 6640,
      "componentType": 5126,
      "count": 705,
      "max": [
        0.9999686479568481,
        0.9997130036354065,
        0.997248113155365,
        1.0
      ],
      "min": [
        -0.9998995065689087,
        -0.9999849200248718,
        -0.999688446521759,
        -1.0
      ],
      "type": "VEC4"
    },
    {
      "bufferView": 1,
      "byteOffset": 3320,
      "componentType": 5126,
      "count": 705,
      "max": [
        0.9998859763145447,
        0.8861340284347534
      ],
      "min": [
        0.00011395000183256343,
        0.00011395000183256343
      ],
      "type": "VEC2"
    },
    {
      "bufferView": 0,
      "byteOffset": 6384,
      "componentType": 5125,
      "count": 3540,
      "type": "SCALAR"
    }
  ],
  "asset": {
    "extras": {
      "author": "Dominatorko (https://sketchfab.com/dominatorko)",
      "license": "CC-BY-4.0 (http://creativecommons.org/licenses/by/4.0/)",
      "source": "https://sketchfab.com/3d-models/rpg-43-soviet-grenade-48a829a5f70b4df18ae2d0916e21e236",
      "title": "RPG-43 - Soviet grenade"
    },
    "generator": "Sketchfab-12.67.0",
    "version": "2.0"
  },
  "bufferViews": [
    {
      "buffer": 0,
      "byteLength": 20544,
      "name": "floatBufferViews",
      "target": 34963
    },
    {
      "buffer": 0,
      "byteLength": 8960,
      "byteOffset": 20544,
      "byteStride": 8,
      "name": "floatBufferViews",
      "target": 34962
    },
    {
      "buffer": 0,
      "byteLength": 26880,
      "byteOffset": 29504,
      "byteStride": 12,
      "name": "floatBufferViews",
      "target": 34962
    },
    {
      "buffer": 0,
      "byteLength": 17920,
      "byteOffset": 56384,
      "byteStride": 16,
      "name": "floatBufferViews",
      "target": 34962
    }
  ],
  "buffers": [
    {
      "byteLength": 74304,
      "uri": "scene.bin"
    }
  ],
  "images": [
    {
      "uri": "textures/Material_001_baseColor.jpeg"
    },
    {
      "uri": "textures/Material_001_metallicRoughness.png"
    },
    {
      "uri": "textures/Material_001_normal.png"
    }
  ],
  "materials": [
    {
      "doubleSided": true,
      "name": "Material_001",
      "normalTexture": {
        "index": 2
      },
      "occlusionTexture": {
        "index": 1
      },
      "pbrMetallicRoughness": {
        "baseColorTexture": {
          "index": 0
        },
        "metallicRoughnessTexture": {
          "index": 1
        }
      }
    }
  ],
  "meshes": [
    {
      "name": "defaultMaterial",
      "primitives": [
        {
          "attributes": {
            "NORMAL": 1,
            "POSITION": 0,
            "TANGENT": 2,
            "TEXCOORD_0": 3
          },
          "indices": 4,
          "material": 0,
          "mode": 4
        }
      ]
    },
    {
      "name": "defaultMaterial",
      "primitives": [
        {
          "attributes": {
            "NORMAL": 6,
            "POSITION": 5,
            "TANGENT": 7,
            "TEXCOORD_0": 8
          },
          "indices": 9,
          "material": 0,
          "mode": 4
        }
      ]
    },
    {
      "name": "defaultMaterial",
      "primitives": [
        {
          "attributes": {
            "NORMAL": 11,
            "POSITION": 10,
            "TANGENT": 12,
            "TEXCOORD_0": 13
          },
          "indices": 14,
          "material": 0,
          "mode": 4
        }
      ]
    }
  ],
  "nodes": [
    {
      "children": [
        1
      ],
      "matrix": [
        1.0,
        0.0,
        0.0,
        0.0,
        0.0,
        2.220446049250313e-16,
        -1.0,
        0.0,
        0.0,
        1.0,
        2.220446049250313e-16,
        0.0,
        0.0,
        0.0,
        0.0,
        1.0
      ],
      "name": "Sketchfab_model"
    },
    {
      "children": [
        2,
        4,
        6
      ],
      "matrix": [
        1.0,
        0.0,
        0.0,
        0.0,
        0.0,
        -4.371139006309477e-08,
        0.999999999999999,
        0.0,
        0.0,
        -0.999999999999999,
        -4.371139006309477e-08,
        0.0,
        0.0,
        0.0,
        0.0,
        1.0
      ],
      "name": "Collada visual scene group"
    },
    {
      "children": [
        3
      ],
      "name": "CheckerCircle_low"
    },
    {
      "mesh": 0,
      "name": "defaultMaterial"
    },
    {
      "children": [
        5
      ],
      "name": "Checker_low"
    },
    {
      "mesh": 1,
      "name": "defaultMaterial"
    },
    {
      "children": [
        7
      ],
      "name": "Body_low"
    },
    {
      "mesh": 2,
      "name": "defaultMaterial"
    }
  ],
  "samplers": [
    {
      "magFilter": 9729,
      "minFilter": 9987,
      "wrapS": 10497,
      "wrapT": 10497
    }
  ],
  "scene": 0,
  "scenes": [
    {
      "name": "Sketchfab_Scene",
      "nodes": [
        0
      ]
    }
  ],
  "textures": [
    {
      "sampler": 0,
      "source": 0
    },
    {
      "sampler": 0,
      "source": 1
    },
    {
      "sampler": 0,
      "source": 2
    }
  ]
}
