{
  "accessors": [
    {
      "bufferView": 2,
      "componentType": 5126,
      "count": 1863,
      "max": [
        0.3853900134563446,
        1.6773899793624878,
        0.7589100003242493
      ],
      "min": [
        -0.38545000553131104,
        0.017510000616312027,
        -0.23839999735355377
      ],
      "type": "VEC3"
    },
    {
      "bufferView": 2,
      "byteOffset": 22356,
      "componentType": 5126,
      "count": 1863,
      "max": [
        1.0,
        1.0,
        1.0
      ],
      "min": [
        -1.0,
        -1.0,
        -1.0
      ],
      "type": "VEC3"
    },
    {
      "bufferView": 1,
      "componentType": 5126,
      "count": 1863,
      "max": [
        0.9831399917602539,
        0.9938700199127197
      ],
      "min": [
        0.00875999964773655,
        0.01840999908745289
      ],
      "type": "VEC2"
    },
    {
      "bufferView": 0,
      "componentType": 5125,
      "count": 5727,
      "type": "SCALAR"
    },
    {
      "bufferView": 2,
      "byteOffset": 44712,
      "componentType": 5126,
      "count": 19057,
      "max": [
        4.922830104827881,
        5.914569854736328,
        1.439039945602417
      ],
      "min": [
        -4.922830104827881,
        -2.8816800117492676,
        -1.8155399560928345
      ],
      "type": "VEC3"
    },
    {
      "bufferView": 2,
      "byteOffset": 273396,
      "componentType": 5126,
      "count": 19057,
      "max": [
        1.0,
        1.0,
        1.0
      ],
      "min": [
        -1.0,
        -1.0,
        -1.0
      ],
      "type": "VEC3"
    },
    {
      "bufferView": 3,
      "componentType": 5126,
      "count": 19057,
      "max": [
        1.0,
        1.0,
        1.0,
        1.0
      ],
      "min": [
        -1.0,
        -1.0,
        -1.0,
        -1.0
      ],
      "type": "VEC4"
    },
    {
      "bufferView": 1,
      "byteOffset": 14904,
      "componentType": 5126,
      "count": 19057,
      "max": [
        0.9956600069999695,
        0.984220027923584
      ],
      "min": [
        0.00853000022470951,
        0.0026400000788271427
      ],
      "type": "VEC2"
    },
    {
      "bufferView": 1,
      "byteOffset": 167360,
      "componentType": 5126,
      "count": 19057,
      "max": [
        0.9956600069999695,
        0.984220027923584
      ],
      "min": [
        0.00853000022470951,
        0.0026400000788271427
      ],
      "type": "VEC2"
    },
    {
      "bufferView": 1,
      "byteOffset": 319816,
      "componentType": 5126,
      "count": 19057,
      "max": [
        0.9956600069999695,
        0.984220027923584
      ],
      "min": [
        0.00853000022470951,
        0.0026400000788271427
      ],
      "type": "VEC2"
    },
    {
      "bufferView": 0,
      "byteOffset": 22908,
      "componentType": 5125,
      "count": 72069,
      "type": "SCALAR"
    },
    {
      "bufferView": 2,
      "byteOffset": 502080,
      "componentType": 5126,
      "count": 636,
      "max": [
        0.31007999181747437,
        1.6130499839782715,
        1.0450899600982666
      ],
      "min": [
        -0.7111799716949463,
        0.2940100133419037,
        0.40623000264167786
      ],
      "type": "VEC3"
    },
    {
      "bufferView": 2,
      "byteOffset": 509712,
      "componentType": 5126,
      "count": 636,
      "max": [
        0.9498066902160645,
        0.995678186416626,
        0.9995460510253906
      ],
      "min": [
        -0.9498066902160645,
        -0.9954274296760559,
        -0.9961697459220886
      ],
      "type": "VEC3"
    },
    {
      "bufferView": 1,
      "byteOffset": 472272,
      "componentType": 5126,
      "count": 636,
      "max": [
        0.9999200105667114,
        0.9999399781227112
      ],
      "min": [
        0.0,
        0.0
      ],
      "type": "VEC2"
    },
    {
      "bufferView": 0,
      "byteOffset": 311184,
      "componentType": 5125,
      "count": 3516,
      "type": "SCALAR"
    }
  ],
  "asset": {
    "extras": {
      "author": "Sabre (https://sketchfab.com/sabrezor)",
      "license": "CC-BY-4.0 (http://creativecommons.org/licenses/by/4.0/)",
      "source": "https://sketchfab.com/3d-models/manilovaps-bf-109-remix-4a663a81690b41a1a700c0a501b00001",
      "title": "Manilov.ap's Bf 109 Remix"
    },
    "generator": "Sketchfab-14.32.1",
    "version": "2.0"
  },
  "bufferViews": [
    {
      "buffer": 0,
      "byteLength": 325248,
      "name": "floatBufferViews",
      "target": 34963
    },
    {
      "buffer": 0,
      "byteLength": 477360,
      "byteOffset": 325248,
      "byteStride": 8,
      "name": "floatBufferViews",
      "target": 34962
    },
    {
      "buffer": 0,
      "byteLength": 517344,
      "byteOffset": 802608,
      "byteStride": 12,
      "name": "floatBufferViews",
      "target": 34962
    },
    {
      "buffer": 0,
      "byteLength": 304912,
      "byteOffset": 1319952,
      "byteStride": 16,
      "name": "floatBufferViews",
      "target": 34962
    }
  ],
  "buffers": [
    {
      "byteLength": 1624864,
      "uri": "scene.bin"
    }
  ],
  "images": [
    {
      "uri": "textures/bf109_baseColor.png"
    },
    {
      "uri": "textures/bf109_metallicRoughness.png"
    },
    {
      "uri": "textures/bf109_normal.png"
    }
  ],
  "materials": [
    {
      "alphaMode": "BLEND",
      "doubleSided": true,
      "name": "glass",
      "pbrMetallicRoughness": {
        "baseColorFactor": [
          0.13634281589839656,
          0.13634281589839656,
          0.13634281589839656,
          0.2219078016
        ],
        "metallicFactor": 0.3665618896,
        "roughnessFactor": 0.0143606318
      }
    },
    {
      "doubleSided": true,
      "name": "interior",
      "pbrMetallicRoughness": {
        "baseColorFactor": [
          0.011386641592928962,
          0.011386641592928962,
          0.011386641592928962,
          1.0
        ],
        "metallicFactor": 0.2533543425,
        "roughnessFactor": 0.5237945941
      }
    },
    {
      "doubleSided": true,
      "name": "bf109",
      "normalTexture": {
        "index": 2,
        "texCoord": 1
      },
      "pbrMetallicRoughness": {
        "baseColorTexture": {
          "index": 0
        },
        "metallicFactor": 0.4923480531704501,
        "metallicRoughnessTexture": {
          "index": 1
        }
      }
    }
  ],
  "meshes": [
    {
      "name": "1.002_0",
      "primitives": [
        {
          "attributes": {
            "NORMAL": 1,
            "POSITION": 0,
            "TEXCOORD_0": 2
          },
          "indices": 3,
          "material": 1,
          "mode": 4
        }
      ]
    },
    {
      "name": "1.002_1",
      "primitives": [
        {
          "attributes": {
            "NORMAL": 5,
            "POSITION": 4,
            "TANGENT": 6,
            "TEXCOORD_0": 7,
            "TEXCOORD_1": 8,
            "TEXCOORD_2": 9
          },
          "indices": 10,
          "material": 2,
          "mode": 4
        }
      ]
    },
    {
      "name": "1.000_0",
      "primitives": [
        {
          "attributes": {
            "NORMAL": 12,
            "POSITION": 11,
            "TEXCOORD_0": 13
          },
          "indices": 14,
          "material": 0,
          "mode": 4
        }
      ]
    }
  ],
  "nodes": [
    {
      "children": [
        1
      ],
      "matrix": [
        1.15470290184021,
        0.0,
        0.0,
        0.0,
        0.0,
        2.5639554964489663e-16,
        -1.15470290184021,
        0.0,
        0.0,
        1.15470290184021,
        2.5639554964489663e-16,
        0.0,
        0.0,
        0.0,
        0.0,
        1.0
      ],
      "name": "Sketchfab_model"
    },
    {
      "children": [
        2,
        5,
        7
      ],
      "name": "Root"
    },
    {
      "children": [
        3,
        4
      ],
      "matrix": [
        1.0,
        -0.0,
        -0.0,
        0.0,
        -0.0,
        0.9676400000000002,
        -0.25235,
        0.0,
        0.0,
        0.25235,
        0.9676400000000002,
        0.0,
        0.0,
        -0.08051000000000001,
        1.5736599999999998,
        1.0
      ],
      "name": "1.002"
    },
    {
      "mesh": 0,
      "name": "1.002_0"
    },
    {
      "mesh": 1,
      "name": "1.002_1"
    },
    {
      "children": [
        6
      ],
      "matrix": [
        0.8430400000000001,
        -0.18433000000000002,
        -0.50528,
        0.0,
        0.0,
        0.93944,
        -0.34271000000000007,
        0.0,
        0.53785,
        0.28892000000000007,
        0.7919900000000001,
        0.0,
        4.112349999999999,
        1.86061,
        6.387029999999999,
        1.0
      ],
      "name": "Sun"
    },
    {
      "name": "Sun"
    },
    {
      "children": [
        8
      ],
      "matrix": [
        1.0,
        -0.0,
        -0.0,
        0.0,
        -0.0,
        0.9676400000000002,
        -0.25235,
        0.0,
        0.0,
        0.25235,
        0.9676400000000002,
        0.0,
        0.0,
        -0.08051000000000001,
        1.5736599999999998,
        1.0
      ],
      "name": "1.000"
    },
    {
      "mesh": 2,
      "name": "1.000_0"
    }
  ],
  "samplers": [
    {
      "magFilter": 9729,
      "minFilter": 9987,
      "wrapS": 10497,
      "wrapT": 10497
    }
  ],
  "scene": 0,
  "scenes": [
    {
      "name": "Sketchfab_Scene",
      "nodes": [
        0
      ]
    }
  ],
  "textures": [
    {
      "sampler": 0,
      "source": 0
    },
    {
      "sampler": 0,
      "source": 1
    },
    {
      "sampler": 0,
      "source": 2
    }
  ]
}
